<svg width="24" height="24" viewBox="0 0 24 24" fill="none" xmlns="http://www.w3.org/2000/svg">
<path opacity="0.4" fill-rule="evenodd" clip-rule="evenodd" d="M14.86 9.13993L18.25 5.74993C16.39 4.24993 14.23 3.42993 12 3.42993C10.22 3.42993 8.49 3.95993 6.91 4.91993C5.33 5.89993 3.91 7.32993 2.75 9.14993C1.75 10.7199 1.75 13.2699 2.75 14.8399C3.62 16.1999 4.64 17.3499 5.75 18.2499H5.76L9.14 14.8599C8.41 14.1299 7.96 13.1199 7.96 11.9999C7.96 9.76993 9.76 7.95993 12 7.95993C13.12 7.95993 14.13 8.39993 14.86 9.13993ZM19.6201 7.04004C20.2001 7.67004 20.7601 8.37004 21.2501 9.15004C22.2501 10.72 22.2501 13.28 21.2501 14.84C20.0901 16.66 18.6701 18.09 17.0901 19.07C15.5101 20.04 13.7801 20.56 12.0001 20.56C10.3901 20.56 8.8101 20.13 7.3501 19.31L10.8101 15.85C11.1801 15.97 11.5801 16.04 12.0001 16.04C14.2301 16.04 16.0401 14.24 16.0401 12C16.0401 11.58 15.9701 11.18 15.8501 10.81L19.6201 7.04004Z" fill="#171717"/>
<path fill-rule="evenodd" clip-rule="evenodd" d="M20.6799 2.22988C20.9799 1.92988 21.4699 1.92988 21.7699 2.22988C22.0799 2.52988 22.0799 3.00988 21.7699 3.30988L3.30988 21.7699C3.15988 21.9199 2.96988 21.9999 2.76988 21.9999C2.56988 21.9999 2.37988 21.9199 2.22988 21.7799C1.92988 21.4799 1.92988 20.9899 2.22988 20.6899L9.5144 13.4014C9.27846 12.9847 9.14014 12.5049 9.14014 11.9999C9.14014 10.4299 10.4201 9.13989 12.0001 9.13989C12.5046 9.13989 12.9839 9.27792 13.4003 9.51339L20.6799 2.22988ZM14.8601 12.0001C14.8601 13.5701 13.5801 14.8601 12.0001 14.8601H12.0001C11.9401 14.8601 11.8901 14.8601 11.8301 14.8401L14.8401 11.8301C14.8601 11.8901 14.8601 11.9401 14.8601 12.0001V12.0001Z" fill="#171717"/>
</svg>
