<svg width="301" height="299" viewBox="0 0 301 299" fill="none" xmlns="http://www.w3.org/2000/svg">
<path fill-rule="evenodd" clip-rule="evenodd" d="M102.531 35.6101C102.489 35.8752 102.491 36.1372 102.53 36.3888C98.3044 37.3634 94.3521 38.467 90.7223 39.6843C83.1563 42.2217 76.8533 45.2985 72.3907 48.8368C67.9547 52.3541 65 56.6153 65 61.5C65 66.3847 67.9547 70.6459 72.3907 74.1632C75.1929 76.385 78.7207 78.4248 82.8313 80.2634C83.5833 80.7448 84.3433 81.1823 85.0799 81.5774C90.3429 84.4007 97.7313 86.7692 106.497 88.5708C107.849 88.8488 109.171 87.9778 109.449 86.6254C109.727 85.2729 108.856 83.9512 107.503 83.6732C98.9667 81.9186 92.1051 79.672 87.4436 77.1714C85.1176 75.9236 81 73.6415 81 70.5C81 64.2027 93.6677 60.8091 98.9878 59.3839C99.3465 59.2878 99.6718 59.2006 99.9575 59.1221C112.535 55.6678 130.052 53.5 149.5 53.5C168.948 53.5 186.465 55.6678 199.042 59.1221C199.328 59.2006 199.654 59.2878 200.012 59.3839C205.332 60.8091 218 64.2027 218 70.5C218 73.6415 213.882 75.9236 211.556 77.1714C206.895 79.672 200.033 81.9186 191.497 83.6732C190.144 83.9512 189.273 85.2729 189.551 86.6254C189.829 87.9778 191.151 88.8488 192.503 88.5708C201.269 86.7692 208.657 84.4007 213.92 81.5774C214.657 81.1823 215.417 80.7448 216.169 80.2634C220.279 78.4248 223.807 76.385 226.609 74.1632C231.045 70.6459 234 66.3847 234 61.5C234 56.6153 231.045 52.3541 226.609 48.8368C222.147 45.2985 215.844 42.2217 208.278 39.6843C204.648 38.4671 200.696 37.3635 196.471 36.3889C196.504 36.1784 196.51 35.9602 196.487 35.7383C195.922 30.3724 192.389 21.4817 184.901 13.9275C177.325 6.28493 165.693 0 149 0C132.297 0 121.021 6.29432 113.748 13.9677C106.551 21.5615 103.351 30.4173 102.531 35.6101ZM117.377 17.4073C111.463 23.6475 108.62 30.8304 107.674 35.2931C120.002 32.8744 134.295 31.5 149.5 31.5C164.726 31.5 179.038 32.8783 191.379 35.3034C190.628 30.991 187.62 23.7727 181.35 17.4475C174.676 10.7151 164.308 5 149 5C133.703 5 123.729 10.7057 117.377 17.4073ZM91.8685 45.537C91.3173 45.3631 90.7333 45.2495 90.1305 45.1857C90.8411 44.9279 91.5685 44.6742 92.3121 44.4248C104.323 40.3966 120.234 37.61 138.081 36.7672L138.011 36.7957C136.612 37.3655 135.314 38.1072 134.327 39.0586C133.332 40.0168 132.5 41.3489 132.5 43C132.5 44.6511 133.332 45.9832 134.327 46.9414C135.093 47.6793 136.045 48.2909 137.086 48.7941C122.262 49.5049 108.945 51.4685 98.6333 54.3007C97.0736 54.7291 95.1571 55.2571 93.1054 55.9183C94.0544 54.8357 94.8491 53.644 95.2898 52.399C95.7348 51.1416 95.8811 49.6205 95.1622 48.1787C94.4434 46.7369 93.1406 45.9384 91.8685 45.537ZM75.2062 64.8467C76.1662 64.775 77.1868 64.6144 78.2457 64.3702C76.8501 66.1264 76 68.1544 76 70.5C76 70.5315 76.0002 70.5629 76.0005 70.5942C76.0007 70.608 76.0009 70.6218 76.0011 70.6356C75.8297 70.5059 75.6617 70.3758 75.4972 70.2453C72.9236 68.2047 71.3392 66.2038 70.5682 64.2943C70.7354 64.3615 70.9034 64.4213 71.0709 64.4741C72.3334 64.8724 73.7671 64.9543 75.2062 64.8467ZM160.079 48.7129C175.639 49.345 189.631 51.3521 200.367 54.3007C201.164 54.5196 202.054 54.7646 203.008 55.0401C202.22 54.0742 201.568 53.031 201.185 51.9474C200.74 50.69 200.594 49.169 201.313 47.7272C202.031 46.2854 203.334 45.4868 204.606 45.0855C205.478 44.8103 206.432 44.6862 207.413 44.6711C207.173 44.5886 206.931 44.5065 206.688 44.4248C194.176 40.2287 177.432 37.3798 158.677 36.672C158.782 36.7126 158.886 36.7538 158.989 36.7957C160.388 37.3655 161.686 38.1072 162.673 39.0586C163.668 40.0168 164.5 41.3489 164.5 43C164.5 44.6511 163.668 45.9832 162.673 46.9414C161.948 47.64 161.056 48.2255 160.079 48.7129ZM228.958 60.7458C228.888 60.9584 228.802 61.1703 228.697 61.3806C227.978 62.8223 226.675 63.6209 225.403 64.0223C224.141 64.4206 222.707 64.5025 221.268 64.395C221.093 64.3819 220.915 64.3658 220.736 64.3467C222.142 66.1083 223 68.1439 223 70.5C223 70.5453 223 70.5905 222.999 70.6356C223.17 70.5059 223.338 70.3758 223.503 70.2453C227.366 67.1825 229 64.2092 229 61.5C229 61.2508 228.986 60.9994 228.958 60.7458ZM137.494 43.0504L137.494 43.0532C137.494 43.0532 137.495 43.0511 137.496 43.0468L137.497 43.0397C137.495 43.0446 137.494 43.0482 137.494 43.0504ZM137.795 42.6597C137.623 42.8254 137.547 42.9389 137.515 43C137.547 43.0611 137.623 43.1746 137.795 43.3403C138.174 43.7049 138.853 44.1484 139.897 44.5739C141.973 45.4196 145.014 46 148.5 46C151.986 46 155.027 45.4196 157.103 44.5739C158.147 44.1484 158.826 43.7049 159.205 43.3403C159.377 43.1746 159.453 43.0611 159.485 43C159.453 42.9389 159.377 42.8254 159.205 42.6597C158.826 42.2951 158.147 41.8516 157.103 41.4261C155.027 40.5804 151.986 40 148.5 40C145.014 40 141.973 40.5804 139.897 41.4261C138.853 41.8516 138.174 42.2951 137.795 42.6597ZM159.506 43.0532C159.506 43.0532 159.504 43.0487 159.503 43.0397C159.506 43.0487 159.506 43.0532 159.506 43.0532ZM159.503 42.9603C159.504 42.9513 159.506 42.9468 159.506 42.9468C159.506 42.9468 159.506 42.9513 159.503 42.9603ZM137.494 42.9468C137.494 42.9468 137.494 42.9513 137.497 42.9603L137.496 42.9538L137.495 42.9489L137.494 42.9468ZM72.2792 59.6825C72.2792 59.6825 72.2777 59.6781 72.2772 59.6681C72.2793 59.6773 72.2792 59.6825 72.2792 59.6825ZM72.2824 59.5862C72.2912 59.5218 72.3129 59.4224 72.3632 59.2803C72.5225 58.8303 72.8998 58.1797 73.5985 57.3837C74.9871 55.8017 77.3052 54.0314 80.2516 52.5624C83.1981 51.0933 86.0069 50.3074 88.106 50.1505C89.1622 50.0715 89.9089 50.1617 90.3642 50.3054C90.5079 50.3507 90.6003 50.3932 90.657 50.4249C90.6483 50.4893 90.6266 50.5887 90.5763 50.7308C90.417 51.1809 90.0397 51.8315 89.341 52.6275C87.9524 54.2095 85.6343 55.9797 82.6879 57.4487C79.7414 58.9178 76.9326 59.7037 74.8335 59.8607C73.7772 59.9396 73.0306 59.8494 72.5753 59.7058C72.4315 59.6604 72.3391 59.6179 72.2824 59.5862ZM90.7359 50.4803C90.7359 50.4803 90.7317 50.4773 90.7256 50.4701C90.7332 50.4765 90.7359 50.4803 90.7359 50.4803ZM90.6623 50.343C90.6602 50.3338 90.6603 50.3287 90.6603 50.3287L90.6608 50.3297L90.6613 50.3325C90.6617 50.3348 90.662 50.3383 90.6623 50.343ZM72.2139 59.541C72.2062 59.5347 72.2036 59.5309 72.2036 59.5309C72.2036 59.5309 72.2078 59.5339 72.2139 59.541ZM205.739 50.0287C205.739 50.0287 205.742 50.0249 205.749 50.0185C205.743 50.0257 205.739 50.0287 205.739 50.0287ZM206.111 49.8538C205.967 49.8991 205.874 49.9416 205.818 49.9734C205.827 50.0378 205.848 50.1372 205.899 50.2793C206.058 50.7293 206.435 51.3799 207.134 52.1759C208.522 53.7579 210.84 55.5281 213.787 56.9971C216.733 58.4661 219.542 59.252 221.641 59.4089C222.697 59.4878 223.444 59.3976 223.899 59.254C224.043 59.2086 224.135 59.1661 224.192 59.1344C224.183 59.07 224.161 58.9706 224.111 58.8284C223.952 58.3784 223.575 57.7278 222.876 56.9318C221.487 55.3499 219.169 53.5797 216.223 52.1107C213.277 50.6417 210.468 49.8558 208.369 49.6989C207.313 49.6199 206.566 49.7101 206.111 49.8538ZM224.195 59.2306C224.195 59.2306 224.195 59.2254 224.197 59.2163C224.197 59.2262 224.195 59.2306 224.195 59.2306ZM224.26 59.0892C224.266 59.0821 224.271 59.0791 224.271 59.0791C224.271 59.0791 224.268 59.0828 224.26 59.0892ZM205.814 49.8806C205.813 49.883 205.813 49.8866 205.813 49.8915C205.815 49.8823 205.814 49.8772 205.814 49.8772L205.814 49.8784L205.814 49.8806Z M21.8446 3.13241C21.4816 2.15132 20.5461 1.5 19.5 1.5C18.4539 1.5 17.5184 2.15132 17.1554 3.13241L12.9628 14.4628L1.63241 18.6554C0.65132 19.0184 0 19.9539 0 21C0 22.0461 0.65132 22.9816 1.63241 23.3446L12.9628 27.5372L17.1554 38.8676C17.5184 39.8487 18.4539 40.5 19.5 40.5C20.5461 40.5 21.4816 39.8487 21.8446 38.8676L26.0372 27.5372L37.3676 23.3446C38.3487 22.9816 39 22.0461 39 21C39 19.9539 38.3487 19.0184 37.3676 18.6554L26.0372 14.4628L21.8446 3.13241ZM17.2531 17.276L19.5 11.2039L21.7469 17.276C22.0001 17.9603 22.5397 18.4999 23.224 18.7531L29.2961 21L23.224 23.2469C22.5397 23.5001 22.0001 24.0397 21.7469 24.724L19.5 30.7961L17.2531 24.724C16.9999 24.0397 16.4603 23.5001 15.776 23.2469L9.70386 21L15.776 18.7531C16.4603 18.4999 16.9999 17.9603 17.2531 17.276ZM236.5 23C236.5 26.3137 233.814 29 230.5 29C227.186 29 224.5 26.3137 224.5 23C224.5 19.6863 227.186 17 230.5 17C233.814 17 236.5 19.6863 236.5 23ZM232.5 23C232.5 24.1046 231.605 25 230.5 25C229.395 25 228.5 24.1046 228.5 23C228.5 21.8954 229.395 21 230.5 21C231.605 21 232.5 21.8954 232.5 23Z M122.101 82.3796C122.488 81.0544 123.877 80.2943 125.202 80.6819C130.669 82.281 139.476 83.5 149.5 83.5C159.226 83.5 167.826 82.3238 173.339 80.812C174.67 80.4468 176.046 81.2302 176.411 82.5617C176.776 83.8933 175.993 85.2688 174.661 85.6339C168.624 87.2896 159.565 88.5 149.5 88.5C139.153 88.5 129.847 87.2499 123.798 85.4808C122.473 85.0932 121.713 83.7048 122.101 82.3796Z M140.91 187.27C142.451 186.625 143.178 184.853 142.533 183.312C141.888 181.771 140.116 181.044 138.575 181.688C137.034 182.333 136.307 184.105 136.952 185.647C137.597 187.188 139.369 187.915 140.91 187.27Z M147.436 195.034C148.081 196.575 147.354 198.347 145.813 198.992C144.272 199.636 142.5 198.91 141.855 197.368C141.21 195.827 141.937 194.055 143.478 193.41C145.019 192.765 146.791 193.492 147.436 195.034Z M142.87 172.348L151.1 192.023C153.809 198.497 161.251 201.55 167.724 198.842C174.197 196.135 177.249 188.692 174.541 182.218C171.833 175.744 164.39 172.691 157.917 175.399C156.12 176.151 154.586 177.268 153.366 178.628L149.567 169.546C149.309 168.93 148.6 168.639 147.984 168.897L143.519 170.764C142.903 171.022 142.612 171.731 142.87 172.348ZM164.922 192.144C162.148 193.305 158.958 191.996 157.798 189.222C156.637 186.447 157.945 183.257 160.719 182.097C163.493 180.937 166.683 182.245 167.843 185.019C169.004 187.794 167.696 190.984 164.922 192.144Z M137.815 138.003C137.543 136.65 138.42 135.332 139.774 135.06L148.598 133.289C149.951 133.017 151.269 133.894 151.541 135.248C151.812 136.602 150.935 137.919 149.582 138.191L140.758 139.962C139.404 140.234 138.086 139.357 137.815 138.003Z M170.242 236.038C170.785 238.746 169.031 241.381 166.323 241.925C163.616 242.468 160.981 240.714 160.437 238.006C159.894 235.299 161.648 232.664 164.355 232.12C167.063 231.577 169.698 233.331 170.242 236.038ZM166.32 236.826C166.428 237.367 166.078 237.894 165.536 238.003C164.995 238.112 164.468 237.761 164.359 237.219C164.25 236.678 164.601 236.151 165.143 236.042C165.684 235.933 166.211 236.284 166.32 236.826Z M111.833 140.668C111.235 137.69 113.165 134.791 116.143 134.194L171.048 123.173C174.026 122.575 176.925 124.505 177.522 127.483L199.171 235.331C199.768 238.31 197.839 241.209 194.861 241.806L139.956 252.827C136.978 253.425 134.079 251.495 133.481 248.517L111.833 140.668ZM117.127 139.096C116.856 139.15 116.681 139.414 116.735 139.684L135.333 232.336L191.218 221.118L172.62 128.467C172.566 128.196 172.302 128.021 172.032 128.075L117.127 139.096ZM192.202 226.021L136.317 237.238L138.383 247.533C138.437 247.804 138.701 247.979 138.972 247.925L193.877 236.904C194.147 236.85 194.323 236.586 194.268 236.315L192.202 226.021Z M11.8126 210.221C11.3464 210.393 10.882 210.604 10.618 210.736C10.1454 210.972 9.61016 211.053 9.08903 210.966C8.69443 210.9 7.95538 210.812 7.14608 210.786C6.57363 210.768 6.05296 210.785 5.63131 210.834C5.6044 210.933 5.5761 211.056 5.5497 211.207C5.40555 212.029 5.41836 213.061 5.48737 213.751C5.62476 215.125 4.6224 216.35 3.24854 216.488C1.87468 216.625 0.649572 215.623 0.512186 214.249C0.414533 213.272 0.377339 211.754 0.624859 210.343C0.747525 209.644 0.96602 208.814 1.39103 208.063C1.82443 207.297 2.60611 206.396 3.89344 206.075C5.02586 205.791 6.29577 205.757 7.30365 205.789C7.96171 205.809 8.5879 205.862 9.11249 205.923C9.41102 205.792 9.74507 205.654 10.0874 205.529C10.6533 205.32 11.6104 205 12.5 205C13.1916 205 13.8761 205.239 14.2394 205.372C14.7066 205.544 15.21 205.767 15.6832 205.991C16.166 206.22 16.657 206.469 17.1049 206.706C18.2134 206.276 19.599 205.915 21.0945 205.829C23.2928 205.703 25.9199 206.171 28.1463 208.119C30.8211 210.459 32.4854 212.622 33.3254 214.078C34.4561 214.622 36.0868 215.551 37.2678 216.732C38.2499 217.714 39.2342 219.058 39.9231 220.086C40.7095 220.172 41.6189 220.331 42.5648 220.587C44.1558 221.017 46.028 221.769 47.6005 223.079C49.2905 224.488 50.3167 226.506 50.9364 228.207C51.3576 229.363 51.6395 230.507 51.8109 231.472C52.4668 231.921 53.1681 232.503 53.7814 233.204C54.7849 234.351 55.8399 236.167 55.466 238.411C55.1112 240.54 54.0079 242.319 52.9824 243.537C53.0851 243.788 53.187 244.049 53.2839 244.312C53.496 244.889 53.7503 245.65 53.8916 246.42C54.2718 246.458 54.6979 246.554 55.118 246.764C55.4195 246.915 55.9265 247.139 56.4734 247.372C58.3953 244.851 62.0618 242.132 67.6663 242.506C73.0274 242.863 76.4397 245.344 78.1918 247.638C78.9123 247.494 79.7217 247.364 80.5671 247.276C82.2592 247.1 84.3373 247.068 86.1868 247.596C87.8754 248.079 89.7896 249.029 91.3985 249.932C92.4094 250.5 93.364 251.085 94.1577 251.597C95.746 250.81 97.8323 249.911 100.06 249.195C102.935 248.271 106.405 247.533 109.411 248.034C116.017 249.135 123.392 253.54 126.308 260.538C128.097 264.833 128.77 269.38 128.948 272.084C130.819 273.317 133.138 275.125 135.113 277.268C137.44 279.792 139.771 283.299 139.494 287.178C139.288 290.059 138.985 292.243 138.68 293.824C138.39 295.324 138.065 296.46 137.736 297.118C137.119 298.353 135.617 298.854 134.382 298.236C133.147 297.619 132.646 296.117 133.264 294.882C133.261 294.889 133.26 294.891 133.261 294.887L133.264 294.879C133.278 294.843 133.333 294.702 133.415 294.413C133.516 294.059 133.64 293.553 133.77 292.876C134.032 291.523 134.312 289.541 134.506 286.822C134.629 285.1 133.543 282.941 131.437 280.657C129.419 278.469 126.899 276.64 125.228 275.652C124.467 275.203 124 274.384 124 273.5C124 271.741 123.535 266.884 121.692 262.462C119.608 257.46 113.983 253.865 108.589 252.966C106.795 252.667 104.265 253.095 101.59 253.955C98.9876 254.791 96.5876 255.922 95.2141 256.685C94.3779 257.15 93.35 257.097 92.5663 256.548C91.7958 256.009 90.4408 255.128 88.9516 254.293C87.427 253.437 85.9246 252.721 84.8132 252.404C83.8626 252.132 82.5241 252.1 81.0829 252.249C79.6798 252.395 78.4088 252.687 77.7184 252.895C76.4784 253.267 75.1596 252.63 74.6788 251.428C74.3717 250.661 72.3801 247.831 67.3337 247.494C62.6562 247.183 60.337 250.191 59.8077 251.462C59.282 252.723 57.8406 253.329 56.5715 252.821C55.8669 252.539 54.2833 251.892 53.2842 251.429C53.1649 251.453 53.0057 251.492 52.8075 251.553C52.1985 251.739 51.5298 252.03 51.118 252.236C49.937 252.827 48.5005 252.397 47.8377 251.255C47.175 250.113 47.5146 248.652 48.6133 247.92C48.6207 247.914 48.662 247.883 48.7212 247.827C48.7886 247.763 48.8552 247.688 48.9098 247.613C48.9617 247.541 48.9861 247.492 48.9969 247.467C48.9903 247.409 48.9705 247.274 48.9128 247.046C48.8391 246.756 48.7284 246.411 48.5911 246.038C48.3155 245.288 47.9793 244.549 47.7639 244.118C47.2367 243.064 47.5177 241.784 48.4383 241.048C48.6563 240.873 49.1403 240.406 49.6024 239.734C50.0619 239.065 50.4118 238.322 50.534 237.589C50.5601 237.433 50.5317 237.083 50.0186 236.496C49.517 235.923 48.823 235.457 48.382 235.236C47.6076 234.849 47.0887 234.089 47.0103 233.226C46.9449 232.508 46.7131 231.221 46.2386 229.918C45.7499 228.577 45.1095 227.512 44.3995 226.921C43.572 226.231 42.4442 225.733 41.2602 225.413C40.0835 225.095 39.0278 225 38.5 225C37.6218 225 36.8081 224.539 36.3563 223.786C35.8846 223 34.7107 221.246 33.7322 220.268C33.3484 219.884 32.7631 219.468 32.1066 219.087C31.4646 218.714 30.874 218.442 30.5715 218.321C29.9363 218.067 29.4329 217.564 29.1788 216.928C29.0406 216.583 27.8738 214.524 24.8537 211.881C23.8801 211.029 22.6739 210.747 21.3805 210.821C20.0508 210.897 18.8328 211.348 18.1971 211.695C17.4355 212.11 16.5129 212.101 15.7597 211.671C15.2157 211.36 14.3488 210.892 13.5418 210.509C13.1358 210.317 12.783 210.164 12.5137 210.065C12.4766 210.051 12.4434 210.04 12.414 210.03L12.4027 210.032C12.2456 210.072 12.0444 210.136 11.8126 210.221Z M279.207 247.991C283.095 247.668 286.646 249.809 287.839 250.869C288.34 251.314 289 251.54 289.669 251.494C290.339 251.449 290.961 251.136 291.398 250.627C291.753 250.212 292.457 249.545 293.275 249.048C294.139 248.522 294.754 248.41 295.089 248.466C296.451 248.693 297.739 247.773 297.966 246.411C298.193 245.049 297.273 243.761 295.911 243.534C293.846 243.19 291.961 243.995 290.675 244.777C290.176 245.081 289.71 245.415 289.289 245.755C286.896 244.254 283.089 242.651 278.792 243.009C276.985 243.159 275.509 243.906 274.405 245.048C273.345 246.143 272.724 247.498 272.359 248.775C272.044 249.877 271.887 251.031 271.834 252.131C271.259 252.018 270.652 251.922 270.024 251.853C267.795 251.606 265.091 251.671 262.571 252.679C258.949 254.128 256.514 256.95 255.171 259.14C253.597 258.852 251.649 258.634 249.571 258.638C246.505 258.642 242.919 259.128 239.815 260.799C234.83 263.483 232.194 268.326 231.079 271.59C229.055 271.759 226.197 272.194 223.622 273.159C220.64 274.277 218.638 276.366 217.526 278.032L217.438 278.028L216.933 278.009L216.74 278.002C215.859 277.969 214.727 277.948 213.505 278.163C210.873 278.625 208.262 280.1 205.92 283.613C204.499 285.746 204.333 288.479 204.478 290.618C204.63 292.847 205.161 294.982 205.646 296.341C206.111 297.641 207.541 298.319 208.842 297.854C210.142 297.39 210.819 295.959 210.355 294.659C210.007 293.684 209.584 292.001 209.467 290.279C209.344 288.468 209.594 287.117 210.081 286.387C211.738 283.9 213.211 283.291 214.371 283.087C215.044 282.969 215.735 282.968 216.557 282.998C216.602 283 216.65 283.002 216.698 283.004L216.883 283.012C217.576 283.041 218.473 283.079 219.292 282.983C220.18 282.878 220.945 282.307 221.298 281.485C221.597 280.786 222.962 278.747 225.378 277.841C228.199 276.783 231.673 276.5 233 276.5C234.192 276.5 235.218 275.659 235.451 274.49C235.872 272.389 237.89 267.514 242.185 265.201C244.281 264.073 246.944 263.641 249.579 263.637C252.193 263.634 254.542 264.051 255.831 264.409C257.059 264.75 258.348 264.112 258.821 262.928C259.335 261.644 261.279 258.581 264.428 257.321C265.909 256.729 267.705 256.627 269.475 256.822C271.234 257.017 272.753 257.48 273.538 257.808C274.374 258.156 275.333 258.025 276.045 257.465C276.757 256.906 277.111 256.005 276.969 255.11C276.754 253.744 276.712 251.738 277.166 250.15C277.388 249.373 277.686 248.846 277.998 248.525C278.265 248.248 278.615 248.041 279.207 247.991Z M38 117.5C41.3137 117.5 44 114.814 44 111.5C44 108.186 41.3137 105.5 38 105.5C34.6863 105.5 32 108.186 32 111.5C32 114.814 34.6863 117.5 38 117.5ZM38 113.5C39.1046 113.5 40 112.605 40 111.5C40 110.395 39.1046 109.5 38 109.5C36.8954 109.5 36 110.395 36 111.5C36 112.605 36.8954 113.5 38 113.5Z M242.5 215C245.814 215 248.5 212.314 248.5 209C248.5 205.686 245.814 203 242.5 203C239.186 203 236.5 205.686 236.5 209C236.5 212.314 239.186 215 242.5 215ZM242.5 211C243.605 211 244.5 210.105 244.5 209C244.5 207.895 243.605 207 242.5 207C241.395 207 240.5 207.895 240.5 209C240.5 210.105 241.395 211 242.5 211Z M285 65C286.046 65 286.982 65.6513 287.345 66.6324L290.457 75.0431L298.868 78.1554C299.849 78.5184 300.5 79.4539 300.5 80.5C300.5 81.5461 299.849 82.4816 298.868 82.8446L290.457 85.9569L287.345 94.3676C286.982 95.3487 286.046 96 285 96C283.954 96 283.018 95.3487 282.655 94.3676L279.543 85.9569L271.132 82.8446C270.151 82.4816 269.5 81.5461 269.5 80.5C269.5 79.4539 270.151 78.5184 271.132 78.1554L279.543 75.0431L282.655 66.6324C283.018 65.6513 283.954 65 285 65ZM285 74.7039L283.833 77.8564C283.58 78.5407 283.041 79.0802 282.356 79.3335L279.204 80.5L282.356 81.6665C283.041 81.9198 283.58 82.4593 283.833 83.1436L285 86.2961L286.167 83.1436C286.42 82.4593 286.959 81.9198 287.644 81.6665L290.796 80.5L287.644 79.3335C286.959 79.0802 286.42 78.5407 286.167 77.8564L285 74.7039Z M81.4297 240.089L120.729 77.9168C121.368 77.4881 122.759 76.702 125.324 75.8811C129.697 74.4818 137.425 73 150.5 73C163.604 73 170.815 74.3633 174.658 75.6252C176.75 76.3123 177.796 76.9539 178.241 77.2864L224.572 266.096C224.901 267.437 226.255 268.257 227.596 267.928C228.937 267.599 229.757 266.245 229.428 264.904L182.83 75.0048C182.605 74.6508 182.377 74.3138 182.083 74.0134C181.818 73.7432 181.456 73.4283 180.965 73.0875C179.987 72.4074 178.493 71.6219 176.217 70.8748C171.685 69.3867 163.896 68 150.5 68C137.075 68 128.803 69.5182 123.801 71.1189C121.065 71.9944 118.205 73.1222 116.222 75.2854L76.5703 238.911C76.2451 240.253 77.0693 241.604 78.4112 241.93C79.7531 242.255 81.1045 241.431 81.4297 240.089Z" fill="#04383F"/>
</svg>
